<?xml version="1.0" encoding="UTF-8" standalone="no"?>
<!DOCTYPE svg PUBLIC "-//W3C//DTD SVG 1.1//EN"
 "http://www.w3.org/Graphics/SVG/1.1/DTD/svg11.dtd">
<!-- Generated by graphviz version 14.1.1 (20251213.1925)
 -->
<!-- Title: InheritanceTree Pages: 1 -->
<svg width="457pt" height="717pt"
 viewBox="0.00 0.00 457.00 717.00" xmlns="http://www.w3.org/2000/svg" xmlns:xlink="http://www.w3.org/1999/xlink">
<g id="graph0" class="graph" transform="scale(1 1) rotate(0) translate(4 712.5)">
<title>InheritanceTree</title>
<polygon fill="white" stroke="none" points="-4,4 -4,-712.5 453,-712.5 453,4 -4,4"/>
<text xml:space="preserve" text-anchor="middle" x="224.5" y="-7.2" font-family="Times New Roman,serif" font-size="14.00">simple_oracle &#45; Inheritance Hierarchy</text>
<!-- DBC_HEATMAP_ANALYZER -->
<g id="node1" class="node">
<title>DBC_HEATMAP_ANALYZER</title>
<path fill="none" stroke="black" d="M198.62,-60.5C198.62,-60.5 28.88,-60.5 28.88,-60.5 22.88,-60.5 16.88,-54.5 16.88,-48.5 16.88,-48.5 16.88,-36.5 16.88,-36.5 16.88,-30.5 22.88,-24.5 28.88,-24.5 28.88,-24.5 198.62,-24.5 198.62,-24.5 204.62,-24.5 210.62,-30.5 210.62,-36.5 210.62,-36.5 210.62,-48.5 210.62,-48.5 210.62,-54.5 204.62,-60.5 198.62,-60.5"/>
<text xml:space="preserve" text-anchor="middle" x="113.75" y="-37.45" font-family="Times New Roman,serif" font-size="14.00">DBC_HEATMAP_ANALYZER</text>
</g>
<!-- ORACLE_CLI -->
<g id="node2" class="node">
<title>ORACLE_CLI</title>
<path fill="none" stroke="black" d="M151,-132.5C151,-132.5 76.5,-132.5 76.5,-132.5 70.5,-132.5 64.5,-126.5 64.5,-120.5 64.5,-120.5 64.5,-108.5 64.5,-108.5 64.5,-102.5 70.5,-96.5 76.5,-96.5 76.5,-96.5 151,-96.5 151,-96.5 157,-96.5 163,-102.5 163,-108.5 163,-108.5 163,-120.5 163,-120.5 163,-126.5 157,-132.5 151,-132.5"/>
<text xml:space="preserve" text-anchor="middle" x="113.75" y="-109.45" font-family="Times New Roman,serif" font-size="14.00">ORACLE_CLI</text>
</g>
<!-- ORACLE_DAEMON -->
<g id="node3" class="node">
<title>ORACLE_DAEMON</title>
<path fill="none" stroke="black" d="M170.12,-204.5C170.12,-204.5 57.37,-204.5 57.37,-204.5 51.38,-204.5 45.38,-198.5 45.38,-192.5 45.38,-192.5 45.38,-180.5 45.38,-180.5 45.38,-174.5 51.38,-168.5 57.38,-168.5 57.38,-168.5 170.12,-168.5 170.12,-168.5 176.12,-168.5 182.12,-174.5 182.12,-180.5 182.12,-180.5 182.12,-192.5 182.12,-192.5 182.12,-198.5 176.12,-204.5 170.12,-204.5"/>
<text xml:space="preserve" text-anchor="middle" x="113.75" y="-181.45" font-family="Times New Roman,serif" font-size="14.00">ORACLE_DAEMON</text>
</g>
<!-- ORACLE_ECOSYSTEM_SCANNER -->
<g id="node4" class="node">
<title>ORACLE_ECOSYSTEM_SCANNER</title>
<path fill="none" stroke="black" d="M215.5,-276.5C215.5,-276.5 12,-276.5 12,-276.5 6,-276.5 0,-270.5 0,-264.5 0,-264.5 0,-252.5 0,-252.5 0,-246.5 6,-240.5 12,-240.5 12,-240.5 215.5,-240.5 215.5,-240.5 221.5,-240.5 227.5,-246.5 227.5,-252.5 227.5,-252.5 227.5,-264.5 227.5,-264.5 227.5,-270.5 221.5,-276.5 215.5,-276.5"/>
<text xml:space="preserve" text-anchor="middle" x="113.75" y="-253.45" font-family="Times New Roman,serif" font-size="14.00">ORACLE_ECOSYSTEM_SCANNER</text>
</g>
<!-- ORACLE_PROCESS_MONITOR -->
<g id="node5" class="node">
<title>ORACLE_PROCESS_MONITOR</title>
<path fill="none" stroke="black" d="M204.62,-348.5C204.62,-348.5 22.88,-348.5 22.88,-348.5 16.88,-348.5 10.88,-342.5 10.88,-336.5 10.88,-336.5 10.88,-324.5 10.88,-324.5 10.88,-318.5 16.88,-312.5 22.88,-312.5 22.88,-312.5 204.62,-312.5 204.62,-312.5 210.62,-312.5 216.62,-318.5 216.62,-324.5 216.62,-324.5 216.62,-336.5 216.62,-336.5 216.62,-342.5 210.62,-348.5 204.62,-348.5"/>
<text xml:space="preserve" text-anchor="middle" x="113.75" y="-325.45" font-family="Times New Roman,serif" font-size="14.00">ORACLE_PROCESS_MONITOR</text>
</g>
<!-- ORACLE_WATCHER_WORKER -->
<g id="node6" class="node">
<title>ORACLE_WATCHER_WORKER</title>
<path fill="none" stroke="black" d="M205.38,-420.5C205.38,-420.5 22.12,-420.5 22.12,-420.5 16.12,-420.5 10.12,-414.5 10.12,-408.5 10.12,-408.5 10.12,-396.5 10.12,-396.5 10.12,-390.5 16.12,-384.5 22.12,-384.5 22.12,-384.5 205.38,-384.5 205.38,-384.5 211.38,-384.5 217.38,-390.5 217.38,-396.5 217.38,-396.5 217.38,-408.5 217.38,-408.5 217.38,-414.5 211.38,-420.5 205.38,-420.5"/>
<text xml:space="preserve" text-anchor="middle" x="113.75" y="-397.45" font-family="Times New Roman,serif" font-size="14.00">ORACLE_WATCHER_WORKER</text>
</g>
<!-- SIMPLE_ORACLE -->
<g id="node7" class="node">
<title>SIMPLE_ORACLE</title>
<path fill="none" stroke="black" d="M164.5,-492.5C164.5,-492.5 63,-492.5 63,-492.5 57,-492.5 51,-486.5 51,-480.5 51,-480.5 51,-468.5 51,-468.5 51,-462.5 57,-456.5 63,-456.5 63,-456.5 164.5,-456.5 164.5,-456.5 170.5,-456.5 176.5,-462.5 176.5,-468.5 176.5,-468.5 176.5,-480.5 176.5,-480.5 176.5,-486.5 170.5,-492.5 164.5,-492.5"/>
<text xml:space="preserve" text-anchor="middle" x="113.75" y="-469.45" font-family="Times New Roman,serif" font-size="14.00">SIMPLE_ORACLE</text>
</g>
<!-- SOURCE_STATS_PARSER -->
<g id="node8" class="node">
<title>SOURCE_STATS_PARSER</title>
<path fill="none" stroke="black" d="M187.75,-564.5C187.75,-564.5 39.75,-564.5 39.75,-564.5 33.75,-564.5 27.75,-558.5 27.75,-552.5 27.75,-552.5 27.75,-540.5 27.75,-540.5 27.75,-534.5 33.75,-528.5 39.75,-528.5 39.75,-528.5 187.75,-528.5 187.75,-528.5 193.75,-528.5 199.75,-534.5 199.75,-540.5 199.75,-540.5 199.75,-552.5 199.75,-552.5 199.75,-558.5 193.75,-564.5 187.75,-564.5"/>
<text xml:space="preserve" text-anchor="middle" x="113.75" y="-541.45" font-family="Times New Roman,serif" font-size="14.00">SOURCE_STATS_PARSER</text>
</g>
<!-- LIB_TESTS -->
<g id="node9" class="node">
<title>LIB_TESTS</title>
<path fill="none" stroke="black" d="M143.88,-636.5C143.88,-636.5 83.62,-636.5 83.62,-636.5 77.62,-636.5 71.62,-630.5 71.62,-624.5 71.62,-624.5 71.62,-612.5 71.62,-612.5 71.62,-606.5 77.62,-600.5 83.62,-600.5 83.62,-600.5 143.88,-600.5 143.88,-600.5 149.88,-600.5 155.88,-606.5 155.88,-612.5 155.88,-612.5 155.88,-624.5 155.88,-624.5 155.88,-630.5 149.88,-636.5 143.88,-636.5"/>
<text xml:space="preserve" text-anchor="middle" x="113.75" y="-613.45" font-family="Times New Roman,serif" font-size="14.00">LIB_TESTS</text>
</g>
<!-- EQA_TEST_SET -->
<g id="node10" class="node">
<title>EQA_TEST_SET</title>
<path fill="none" stroke="black" d="M437,-636.5C437,-636.5 347.5,-636.5 347.5,-636.5 341.5,-636.5 335.5,-630.5 335.5,-624.5 335.5,-624.5 335.5,-612.5 335.5,-612.5 335.5,-606.5 341.5,-600.5 347.5,-600.5 347.5,-600.5 437,-600.5 437,-600.5 443,-600.5 449,-606.5 449,-612.5 449,-612.5 449,-624.5 449,-624.5 449,-630.5 443,-636.5 437,-636.5"/>
<text xml:space="preserve" text-anchor="middle" x="392.25" y="-613.45" font-family="Times New Roman,serif" font-size="14.00">EQA_TEST_SET</text>
</g>
<!-- LIB_TESTS&#45;&gt;EQA_TEST_SET -->
<g id="edge1" class="edge">
<title>LIB_TESTS&#45;&gt;EQA_TEST_SET</title>
<path fill="none" stroke="black" d="M156.35,-618.5C156.35,-618.5 323.65,-618.5 323.65,-618.5"/>
<polygon fill="none" stroke="black" points="323.65,-622 333.65,-618.5 323.65,-615 323.65,-622"/>
</g>
<!-- TEST_APP -->
<g id="node11" class="node">
<title>TEST_APP</title>
<path fill="none" stroke="black" d="M141.62,-708.5C141.62,-708.5 85.88,-708.5 85.88,-708.5 79.88,-708.5 73.88,-702.5 73.88,-696.5 73.88,-696.5 73.88,-684.5 73.88,-684.5 73.88,-678.5 79.88,-672.5 85.88,-672.5 85.88,-672.5 141.62,-672.5 141.62,-672.5 147.62,-672.5 153.62,-678.5 153.62,-684.5 153.62,-684.5 153.62,-696.5 153.62,-696.5 153.62,-702.5 147.62,-708.5 141.62,-708.5"/>
<text xml:space="preserve" text-anchor="middle" x="113.75" y="-685.45" font-family="Times New Roman,serif" font-size="14.00">TEST_APP</text>
</g>
</g>
</svg>
