<?xml version="1.0" encoding="UTF-8" standalone="no"?>
<!DOCTYPE svg PUBLIC "-//W3C//DTD SVG 1.1//EN"
 "http://www.w3.org/Graphics/SVG/1.1/DTD/svg11.dtd">
<!-- Generated by graphviz version 14.1.1 (20251213.1925)
 -->
<!-- Title: Dependencies Pages: 1 -->
<svg width="372pt" height="933pt"
 viewBox="0.00 0.00 372.00 933.00" xmlns="http://www.w3.org/2000/svg" xmlns:xlink="http://www.w3.org/1999/xlink">
<g id="graph0" class="graph" transform="scale(1 1) rotate(0) translate(4 928.5)">
<title>Dependencies</title>
<polygon fill="white" stroke="none" points="-4,4 -4,-928.5 368.25,-928.5 368.25,4 -4,4"/>
<text xml:space="preserve" text-anchor="middle" x="182.12" y="-7.2" font-family="Times New Roman,serif" font-size="14.00">simple_oracle &#45; Dependencies</text>
<!-- simple_oracle -->
<g id="node1" class="node">
<title>simple_oracle</title>
<polygon fill="lightblue" stroke="black" points="92.5,-492.5 0,-492.5 0,-456.5 92.5,-456.5 92.5,-492.5"/>
<text xml:space="preserve" text-anchor="middle" x="46.25" y="-469.45" font-family="Times New Roman,serif" font-size="14.00">simple_oracle</text>
</g>
<!-- simple_datetime -->
<g id="node2" class="node">
<title>simple_datetime</title>
<polygon fill="lightblue" stroke="black" points="353.75,-924.5 247,-924.5 247,-888.5 353.75,-888.5 353.75,-924.5"/>
<text xml:space="preserve" text-anchor="middle" x="300.38" y="-901.45" font-family="Times New Roman,serif" font-size="14.00">simple_datetime</text>
</g>
<!-- simple_oracle&#45;&gt;simple_datetime -->
<g id="edge1" class="edge">
<title>simple_oracle&#45;&gt;simple_datetime</title>
<path fill="none" stroke="black" stroke-dasharray="5,2" d="M13.25,-492.79C13.25,-575.01 13.25,-906.5 13.25,-906.5 13.25,-906.5 235.19,-906.5 235.19,-906.5"/>
<polygon fill="black" stroke="black" points="235.19,-910 245.19,-906.5 235.19,-903 235.19,-910"/>
</g>
<!-- simple_file -->
<g id="node3" class="node">
<title>simple_file</title>
<polygon fill="lightblue" stroke="black" points="339.12,-852.5 261.62,-852.5 261.62,-816.5 339.12,-816.5 339.12,-852.5"/>
<text xml:space="preserve" text-anchor="middle" x="300.38" y="-829.45" font-family="Times New Roman,serif" font-size="14.00">simple_file</text>
</g>
<!-- simple_oracle&#45;&gt;simple_file -->
<g id="edge2" class="edge">
<title>simple_oracle&#45;&gt;simple_file</title>
<path fill="none" stroke="black" stroke-dasharray="5,2" d="M26.25,-492.85C26.25,-566.21 26.25,-834.5 26.25,-834.5 26.25,-834.5 249.88,-834.5 249.88,-834.5"/>
<polygon fill="black" stroke="black" points="249.88,-838 259.88,-834.5 249.88,-831 249.88,-838"/>
</g>
<!-- simple_json -->
<g id="node4" class="node">
<title>simple_json</title>
<polygon fill="lightblue" stroke="black" points="341.38,-780.5 259.38,-780.5 259.38,-744.5 341.38,-744.5 341.38,-780.5"/>
<text xml:space="preserve" text-anchor="middle" x="300.38" y="-757.45" font-family="Times New Roman,serif" font-size="14.00">simple_json</text>
</g>
<!-- simple_oracle&#45;&gt;simple_json -->
<g id="edge3" class="edge">
<title>simple_oracle&#45;&gt;simple_json</title>
<path fill="none" stroke="black" stroke-dasharray="5,2" d="M39.25,-492.95C39.25,-556.52 39.25,-762.5 39.25,-762.5 39.25,-762.5 247.49,-762.5 247.49,-762.5"/>
<polygon fill="black" stroke="black" points="247.49,-766 257.49,-762.5 247.49,-759 247.49,-766"/>
</g>
<!-- simple_logger -->
<g id="node5" class="node">
<title>simple_logger</title>
<polygon fill="lightblue" stroke="black" points="347.38,-708.5 253.38,-708.5 253.38,-672.5 347.38,-672.5 347.38,-708.5"/>
<text xml:space="preserve" text-anchor="middle" x="300.38" y="-685.45" font-family="Times New Roman,serif" font-size="14.00">simple_logger</text>
</g>
<!-- simple_oracle&#45;&gt;simple_logger -->
<g id="edge4" class="edge">
<title>simple_oracle&#45;&gt;simple_logger</title>
<path fill="none" stroke="black" stroke-dasharray="5,2" d="M53.25,-492.92C53.25,-545.15 53.25,-690.5 53.25,-690.5 53.25,-690.5 241.51,-690.5 241.51,-690.5"/>
<polygon fill="black" stroke="black" points="241.51,-694 251.51,-690.5 241.51,-687 241.51,-694"/>
</g>
<!-- simple_process -->
<g id="node6" class="node">
<title>simple_process</title>
<polygon fill="lightblue" stroke="black" points="350.38,-636.5 250.38,-636.5 250.38,-600.5 350.38,-600.5 350.38,-636.5"/>
<text xml:space="preserve" text-anchor="middle" x="300.38" y="-613.45" font-family="Times New Roman,serif" font-size="14.00">simple_process</text>
</g>
<!-- simple_oracle&#45;&gt;simple_process -->
<g id="edge5" class="edge">
<title>simple_oracle&#45;&gt;simple_process</title>
<path fill="none" stroke="black" stroke-dasharray="5,2" d="M66.25,-492.74C66.25,-531.49 66.25,-618.5 66.25,-618.5 66.25,-618.5 238.64,-618.5 238.64,-618.5"/>
<polygon fill="black" stroke="black" points="238.64,-622 248.64,-618.5 238.64,-615 238.64,-622"/>
</g>
<!-- simple_sql -->
<g id="node7" class="node">
<title>simple_sql</title>
<polygon fill="lightblue" stroke="black" points="338,-564.5 262.75,-564.5 262.75,-528.5 338,-528.5 338,-564.5"/>
<text xml:space="preserve" text-anchor="middle" x="300.38" y="-541.45" font-family="Times New Roman,serif" font-size="14.00">simple_sql</text>
</g>
<!-- simple_oracle&#45;&gt;simple_sql -->
<g id="edge6" class="edge">
<title>simple_oracle&#45;&gt;simple_sql</title>
<path fill="none" stroke="black" stroke-dasharray="5,2" d="M79.25,-492.67C79.25,-514 79.25,-546.5 79.25,-546.5 79.25,-546.5 250.85,-546.5 250.85,-546.5"/>
<polygon fill="black" stroke="black" points="250.85,-550 260.85,-546.5 250.85,-543 250.85,-550"/>
</g>
<!-- simple_watcher -->
<g id="node8" class="node">
<title>simple_watcher</title>
<polygon fill="lightblue" stroke="black" points="351.5,-492.5 249.25,-492.5 249.25,-456.5 351.5,-456.5 351.5,-492.5"/>
<text xml:space="preserve" text-anchor="middle" x="300.38" y="-469.45" font-family="Times New Roman,serif" font-size="14.00">simple_watcher</text>
</g>
<!-- simple_oracle&#45;&gt;simple_watcher -->
<g id="edge7" class="edge">
<title>simple_oracle&#45;&gt;simple_watcher</title>
<path fill="none" stroke="black" stroke-dasharray="5,2" d="M92.86,-480.5C92.86,-480.5 237.3,-480.5 237.3,-480.5"/>
<polygon fill="black" stroke="black" points="237.3,-484 247.3,-480.5 237.3,-477 237.3,-484"/>
</g>
<!-- simple_toml -->
<g id="node9" class="node">
<title>simple_toml</title>
<polygon fill="lightblue" stroke="black" points="342.88,-420.5 257.88,-420.5 257.88,-384.5 342.88,-384.5 342.88,-420.5"/>
<text xml:space="preserve" text-anchor="middle" x="300.38" y="-397.45" font-family="Times New Roman,serif" font-size="14.00">simple_toml</text>
</g>
<!-- simple_oracle&#45;&gt;simple_toml -->
<g id="edge8" class="edge">
<title>simple_oracle&#45;&gt;simple_toml</title>
<path fill="none" stroke="black" stroke-dasharray="5,2" d="M77.25,-456.33C77.25,-435 77.25,-402.5 77.25,-402.5 77.25,-402.5 246.1,-402.5 246.1,-402.5"/>
<polygon fill="black" stroke="black" points="246.1,-406 256.1,-402.5 246.1,-399 246.1,-406"/>
</g>
<!-- simple_ucf -->
<g id="node10" class="node">
<title>simple_ucf</title>
<polygon fill="lightblue" stroke="black" points="338.75,-348.5 262,-348.5 262,-312.5 338.75,-312.5 338.75,-348.5"/>
<text xml:space="preserve" text-anchor="middle" x="300.38" y="-325.45" font-family="Times New Roman,serif" font-size="14.00">simple_ucf</text>
</g>
<!-- simple_oracle&#45;&gt;simple_ucf -->
<g id="edge9" class="edge">
<title>simple_oracle&#45;&gt;simple_ucf</title>
<path fill="none" stroke="black" stroke-dasharray="5,2" d="M61.25,-456.26C61.25,-417.51 61.25,-330.5 61.25,-330.5 61.25,-330.5 250.18,-330.5 250.18,-330.5"/>
<polygon fill="black" stroke="black" points="250.18,-334 260.18,-330.5 250.18,-327 250.18,-334"/>
</g>
<!-- simple_eiffel_parser -->
<g id="node11" class="node">
<title>simple_eiffel_parser</title>
<polygon fill="lightblue" stroke="black" points="364.25,-276.5 236.5,-276.5 236.5,-240.5 364.25,-240.5 364.25,-276.5"/>
<text xml:space="preserve" text-anchor="middle" x="300.38" y="-253.45" font-family="Times New Roman,serif" font-size="14.00">simple_eiffel_parser</text>
</g>
<!-- simple_oracle&#45;&gt;simple_eiffel_parser -->
<g id="edge10" class="edge">
<title>simple_oracle&#45;&gt;simple_eiffel_parser</title>
<path fill="none" stroke="black" stroke-dasharray="5,2" d="M92.96,-468.5C150.65,-468.5 241.25,-468.5 241.25,-468.5 241.25,-468.5 241.25,-288.28 241.25,-288.28"/>
<polygon fill="black" stroke="black" points="244.75,-288.28 241.25,-278.28 237.75,-288.28 244.75,-288.28"/>
</g>
<!-- simple_testing -->
<g id="node12" class="node">
<title>simple_testing</title>
<polygon fill="lightblue" stroke="black" points="348.12,-204.5 252.62,-204.5 252.62,-168.5 348.12,-168.5 348.12,-204.5"/>
<text xml:space="preserve" text-anchor="middle" x="300.38" y="-181.45" font-family="Times New Roman,serif" font-size="14.00">simple_testing</text>
</g>
<!-- simple_oracle&#45;&gt;simple_testing -->
<g id="edge11" class="edge">
<title>simple_oracle&#45;&gt;simple_testing</title>
<path fill="none" stroke="black" stroke-dasharray="5,2" d="M46.25,-456.05C46.25,-392.48 46.25,-186.5 46.25,-186.5 46.25,-186.5 240.76,-186.5 240.76,-186.5"/>
<polygon fill="black" stroke="black" points="240.76,-190 250.76,-186.5 240.76,-183 240.76,-190"/>
</g>
<!-- base -->
<g id="node13" class="node">
<title>base</title>
<polygon fill="lightgray" stroke="black" points="327.38,-132.5 273.38,-132.5 273.38,-96.5 327.38,-96.5 327.38,-132.5"/>
<text xml:space="preserve" text-anchor="middle" x="300.38" y="-109.45" font-family="Times New Roman,serif" font-size="14.00">base</text>
</g>
<!-- simple_oracle&#45;&gt;base -->
<g id="edge12" class="edge">
<title>simple_oracle&#45;&gt;base</title>
<path fill="none" stroke="black" stroke-dasharray="5,2" d="M31.25,-456.15C31.25,-382.79 31.25,-114.5 31.25,-114.5 31.25,-114.5 261.58,-114.5 261.58,-114.5"/>
<polygon fill="black" stroke="black" points="261.58,-118 271.58,-114.5 261.58,-111 261.58,-118"/>
</g>
<!-- testing -->
<g id="node14" class="node">
<title>testing</title>
<polygon fill="lightgray" stroke="black" points="327.38,-60.5 273.38,-60.5 273.38,-24.5 327.38,-24.5 327.38,-60.5"/>
<text xml:space="preserve" text-anchor="middle" x="300.38" y="-37.45" font-family="Times New Roman,serif" font-size="14.00">testing</text>
</g>
<!-- simple_oracle&#45;&gt;testing -->
<g id="edge13" class="edge">
<title>simple_oracle&#45;&gt;testing</title>
<path fill="none" stroke="black" stroke-dasharray="5,2" d="M15.25,-456.21C15.25,-373.99 15.25,-42.5 15.25,-42.5 15.25,-42.5 261.52,-42.5 261.52,-42.5"/>
<polygon fill="black" stroke="black" points="261.52,-46 271.52,-42.5 261.52,-39 261.52,-46"/>
</g>
</g>
</svg>
